# File created by Blade
# Date/Time:  Tue Sep 30 19:29:42 2014
#---------------------------------------------------------
:version 1.10
:name HOM
:units
  mass 1.0
  length 1.000000
  angle deg
:documentation
     Acclaim Skeleton File
:root
   axis xyz
   order TX TY TZ RX RY RZ
   position 0.000000 0.000000 0.000000
   orientation 0 0 0
:bonedata
   begin
      id 1
      name RightUpLeg_dum
      direction -1.000000 0.000000 0.000000
      length 3.766986
      axis 0.0 0.0 0.0 xyz
   end
   begin
      id 2
      name LeftUpLeg_dum
      direction 1.000000 0.000000 0.000000
      length 3.766986
      axis 0.0 0.0 0.0 xyz
   end
   begin
      id 3
      name Spine_dum
      direction 0.000000 1.000000 0.000000
      length 7.779697
      axis 0.0 0.0 0.0 xyz
   end
   begin
      id 4
      name RightUpLeg
      direction 0.000000 -1.000000 0.000000
      length 18.017682
      axis 0.0 0.0 0.0 xyz
      dof rx ry rz
   end
   begin
      id 5
      name RightLeg
      direction 0.000000 -1.000000 0.000000
      length 16.881075
      axis 0.0 0.0 0.0 xyz
      dof rx ry rz
   end
   begin
      id 6
      name RightFoot
      direction 0.000000 -0.258819 0.965926
      length 5.770812
      axis 15.0 0.0 0.0 xyz
      dof rx ry rz
   end
   begin
      id 7
      name RightToeBase
      direction 0.000000 0.000000 1.000000
      length 2.952750
      axis 0.0 0.0 0.0 xyz
      dof rx ry rz
   end
   begin
      id 8
      name LeftUpLeg
      direction 0.000000 -1.000000 0.000000
      length 18.017682
      axis 0.0 0.0 0.0 xyz
      dof rx ry rz
   end
   begin
      id 9
      name LeftLeg
      direction 0.000000 -1.000000 0.000000
      length 16.881075
      axis 0.0 0.0 0.0 xyz
      dof rx ry rz
   end
   begin
      id 10
      name LeftFoot
      direction 0.000000 -0.258819 0.965926
      length 5.770812
      axis 15.0 0.0 0.0 xyz
      dof rx ry rz
   end
   begin
      id 11
      name LeftToeBase
      direction 0.000000 0.000000 1.000000
      length 2.952750
      axis 0.0 0.0 0.0 xyz
      dof rx ry rz
   end
   begin
      id 12
      name Spine
      direction 0.000000 1.000000 0.000000
      length 0.000000
      axis 0.0 0.0 0.0 xyz
      dof rx ry rz
   end
   begin
      id 13
      name Spine_dum1
      direction 0.000000 1.000000 0.000000
      length 10.941760
      axis 0.0 0.0 0.0 xyz
   end
   begin
      id 14
      name Spine_dum2
      direction 0.000000 1.000000 0.000000
      length 10.941760
      axis 0.0 0.0 0.0 xyz
   end
   begin
      id 15
      name Spine_dum3
      direction 0.000000 1.000000 0.000000
      length 16.646042
      axis 0.0 0.0 0.0 xyz
   end
   begin
      id 16
      name RightShoulder
      direction -1.000000 0.000000 0.000000
      length 7.708937
      axis 0.0 0.0 90.0 xyz
      dof rx ry rz
   end
   begin
      id 17
      name RightArm
      direction -1.000000 0.000000 0.000000
      length 11.521345
      axis 0.0 0.0 90.0 xyz
      dof rx ry rz
   end
   begin
      id 18
      name RightForeArm
      direction -1.000000 0.000000 0.000000
      length 10.175898
      axis 0.0 0.0 90.0 xyz
      dof ry rz rx
   end
   begin
      id 19
      name RightHand
      direction -1.000000 0.000000 0.000000
      length 0.000000
      axis 0.0 0.0 90.0 xyz
      dof rx ry rz
   end
   begin
      id 20
      name RightHand_dum1
      direction -1.000000 0.000000 0.000000
      length 3.937000
      axis 0.0 0.0 90.0 xyz
   end
   begin
      id 21
      name RightHand_dum2
      direction 0.000000 0.000000 0.000000
      length 0.000000
      axis 0.0 0.0 90.0 xyz
   end
   begin
      id 22
      name RightHandThumb1
      direction 0.000000 0.000000 1.000000
      length 3.937000
      axis 0.0 0.0 90.0 xyz
      dof rx rz ry
   end
   begin
      id 23
      name LeftShoulder
      direction 1.000000 0.000000 0.000000
      length 7.708937
      axis 0.0 0.0 -90.0 xyz
      dof rx ry rz
   end
   begin
      id 24
      name LeftArm
      direction 1.000000 0.000000 0.000000
      length 11.521345
      axis 0.0 0.0 -90.0 xyz
      dof rx ry rz
   end
   begin
      id 25
      name LeftForeArm
      direction 1.000000 0.000000 0.000000
      length 10.175898
      axis 0.0 0.0 -90.0 xyz
      dof ry rz rx
   end
   begin
      id 26
      name LeftHand
      direction 1.000000 0.000000 0.000000
      length 0.000000
      axis 0.0 0.0 -90.0 xyz
      dof rx ry rz
   end
   begin
      id 27
      name LeftHand_dum1
      direction 1.000000 0.000000 0.000000
      length 3.937000
      axis 0.0 0.0 -90.0 xyz
   end
   begin
      id 28
      name LeftHand_dum2
      direction 0.000000 0.000000 0.000000
      length 0.000000
      axis 0.0 0.0 -90.0 xyz
   end
   begin
      id 29
      name LeftHandThumb1
      direction 0.000000 0.000000 1.000000
      length 3.937000
      axis 0.0 0.0 -90.0 xyz
      dof rx rz ry
   end
   begin
      id 30
      name Head
      direction 0.000000 1.000000 0.000000
      length 4.527550
      axis 0.0 0.0 0.0 xyz
      dof rx ry rz
   end
:hierarchy
   begin
      root RightUpLeg_dum LeftUpLeg_dum Spine_dum
      RightUpLeg_dum RightUpLeg
      LeftUpLeg_dum LeftUpLeg
      Spine_dum Spine
      RightUpLeg RightLeg
      RightLeg RightFoot
      RightFoot RightToeBase
      LeftUpLeg LeftLeg
      LeftLeg LeftFoot
      LeftFoot LeftToeBase
      Spine Spine_dum1 Spine_dum2 Spine_dum3
      Spine_dum1 RightShoulder
      Spine_dum2 LeftShoulder
      Spine_dum3 Head
      RightShoulder RightArm
      RightArm RightForeArm
      RightForeArm RightHand
      RightHand RightHand_dum1 RightHand_dum2
      RightHand_dum2 RightHandThumb1
      LeftShoulder LeftArm
      LeftArm LeftForeArm
      LeftForeArm LeftHand
      LeftHand LeftHand_dum1 LeftHand_dum2
      LeftHand_dum2 LeftHandThumb1
   end

# File created by Blade
# Date/Time:  Mon Sep 22 17:38:34 2014
# Frame Rate: 120.000 fps
#------------------------------------------------------
:FULLY-SPECIFIED
:DEGREES
702
root 0.948934 36.901893 5.924241 -14.579002 -30.455051 -2.444953
RightUpLeg 21.810093 7.324924 9.544381
RightLeg -2.032324 -0.000000 0.000000
RightFoot -9.316671 -7.247201 8.750462
RightToeBase 9.997585 -0.000000 -0.000000
LeftUpLeg -57.149187 14.664016 -28.250869
LeftLeg 110.654156 -0.000000 -0.000000
LeftFoot 11.532531 17.397889 -32.679213
LeftToeBase -1.512561 -0.000000 0.000000
Spine 21.374647 -11.488953 2.066620
RightShoulder 1.291459 -28.517627 -10.723501
RightArm 20.793377 -20.271145 61.066533
RightForeArm 6.493772 -0.000000 38.378606
RightHand -0.088180 -0.000000 -1.785778
RightHandThumb1 -24.326973 -0.000000 -32.862282
LeftShoulder -20.196346 29.663107 1.689433
LeftArm 47.566948 -39.806117 -52.971869
LeftForeArm 37.972455 -0.000000 52.224328
LeftHand -16.211790 -0.000000 -28.089490
LeftHandThumb1 -26.253704 0.000000 33.147579
Head 17.430172 32.382214 -2.545438
703
root 0.940434 36.899249 5.930950 -14.539839 -30.562509 -2.468808
RightUpLeg 21.755086 7.355580 9.588406
RightLeg -1.933133 -0.000000 0.000000
RightFoot -9.364196 -7.273828 8.639505
RightToeBase 9.996634 -0.000000 -0.000000
LeftUpLeg -56.987328 14.798201 -28.056320
LeftLeg 110.381284 -0.000000 -0.000000
LeftFoot 11.603134 17.349356 -32.558846
LeftToeBase -1.617111 -0.000000 0.000000
Spine 21.312070 -11.418149 2.065842
RightShoulder 1.255060 -28.548420 -10.697556
RightArm 20.793550 -20.366012 61.136028
RightForeArm 6.432037 -0.000000 38.258805
RightHand -0.103322 0.000000 -1.681471
RightHandThumb1 -24.326973 -0.000000 -32.862282
LeftShoulder -20.149564 29.642177 1.760870
LeftArm 47.575093 -39.772750 -53.029843
LeftForeArm 37.850526 0.000000 52.291566
LeftHand -16.207999 0.000000 -28.220142
LeftHandThumb1 -26.253704 0.000000 33.147579
Head 17.574230 32.346157 -2.439196
704
root 0.931334 36.899606 5.938787 -14.523145 -30.671663 -2.507184
RightUpLeg 21.754521 7.361083 9.625118
RightLeg -1.889876 -0.000000 0.000000
RightFoot -9.355099 -7.232076 8.635996
RightToeBase 9.936279 -0.000000 -0.000000
LeftUpLeg -56.773116 14.938626 -27.815609
LeftLeg 110.096663 -0.000000 -0.000000
LeftFoot 11.541864 17.345904 -32.564466
LeftToeBase -1.535388 -0.000000 0.000000
Spine 21.290400 -11.381411 2.069458
RightShoulder 1.232559 -28.593622 -10.692681
RightArm 20.844027 -20.489333 61.173101
RightForeArm 6.455004 -0.000000 38.128307
RightHand -0.063235 -0.000000 -1.691564
RightHandThumb1 -24.326973 -0.000000 -32.862282
LeftShoulder -20.141913 29.649783 1.793986
LeftArm 47.615841 -39.752316 -53.115487
LeftForeArm 37.937997 -0.000000 52.331744
LeftHand -16.276730 -0.000000 -28.300347
LeftHandThumb1 -26.253704 0.000000 33.147579
Head 17.699560 32.343420 -2.354181
705
root 0.924737 36.901339 5.946888 -14.531866 -30.814160 -2.501772
RightUpLeg 21.740501 7.404829 9.640108
RightLeg -1.810241 -0.000000 0.000000
RightFoot -9.372238 -7.183908 8.569572
RightToeBase 9.947449 -0.000000 -0.000000
LeftUpLeg -56.553665 15.103284 -27.579340
LeftLeg 109.787056 -0.000000 -0.000000
LeftFoot 11.495192 17.422633 -32.553204
LeftToeBase -1.458381 -0.000000 0.000000
Spine 21.284366 -11.328620 2.030310
RightShoulder 1.210116 -28.628154 -10.682575
RightArm 20.901295 -20.596780 61.198602
RightForeArm 6.389019 -0.000000 38.032055
RightHand -0.081337 -0.000000 -1.596392
RightHandThumb1 -24.326973 -0.000000 -32.862282
LeftShoulder -20.162659 29.667456 1.804544
LeftArm 47.645774 -39.737478 -53.175000
LeftForeArm 38.087367 0.000000 52.353372
LeftHand -16.219183 -0.000000 -28.196961
LeftHandThumb1 -26.253704 0.000000 33.147579
Head 17.777063 32.339484 -2.359960
706
root 0.918874 36.905040 5.955118 -14.560063 -30.974452 -2.477521
RightUpLeg 21.737803 7.483001 9.641332
RightLeg -1.729839 -0.000000 0.000000
RightFoot -9.380652 -7.165873 8.542299
RightToeBase 9.884252 -0.000000 -0.000000
LeftUpLeg -56.314017 15.287931 -27.328530
LeftLeg 109.453169 -0.000000 -0.000000
LeftFoot 11.470290 17.468472 -32.593230
LeftToeBase -1.637586 -0.000000 0.000000
Spine 21.292059 -11.280383 1.977663
RightShoulder 1.227917 -28.625399 -10.685289
RightArm 20.891651 -20.653480 61.265612
RightForeArm 6.264483 -0.000000 38.000441
RightHand -0.211671 0.000000 -1.456228
RightHandThumb1 -24.326973 -0.000000 -32.862282
LeftShoulder -20.179443 29.683898 1.791223
LeftArm 47.630980 -39.764427 -53.217285
LeftForeArm 38.095699 -0.000000 52.411491
LeftHand -16.311703 -0.000000 -28.195171
LeftHandThumb1 -26.253704 0.000000 33.147579
Head 17.856714 32.387659 -2.408273
707
root 0.912457 36.909257 5.964721 -14.603626 -31.174323 -2.431972
RightUpLeg 21.738785 7.543965 9.620511
RightLeg -1.647122 -0.000000 0.000000
RightFoot -9.383764 -7.100989 8.500049
RightToeBase 9.921880 -0.000000 -0.000000
LeftUpLeg -56.052038 15.499952 -27.043472
LeftLeg 109.105688 -0.000000 -0.000000
LeftFoot 11.415227 17.527538 -32.582364
LeftToeBase -1.436813 -0.000000 0.000000
Spine 21.306460 -11.211632 1.904585
RightShoulder 1.235368 -28.668876 -10.693028
RightArm 20.953656 -20.748400 61.290017
RightForeArm 6.257396 0.000000 37.963662
RightHand -0.212943 -0.000000 -1.407993
RightHandThumb1 -24.326973 -0.000000 -32.862282
LeftShoulder -20.230994 29.703828 1.780794
LeftArm 47.617709 -39.760659 -53.292936
LeftForeArm 38.338502 0.000000 52.459878
LeftHand -16.402734 -0.000000 -28.118005
LeftHandThumb1 -26.253704 0.000000 33.147579
Head 17.921060 32.476049 -2.446922
708
root 0.904346 36.915207 5.976027 -14.654876 -31.432811 -2.373909
RightUpLeg 21.748192 7.669994 9.612716
RightLeg -1.556545 -0.000000 0.000000
RightFoot -9.401110 -7.056170 8.415986
RightToeBase 9.949749 -0.000000 -0.000000
LeftUpLeg -55.784349 15.757071 -26.701420
LeftLeg 108.726882 -0.000000 -0.000000
LeftFoot 11.520780 17.510386 -32.513501
LeftToeBase -1.499017 -0.000000 0.000000
Spine 21.308639 -11.102915 1.841646
RightShoulder 1.248669 -28.708995 -10.701858
RightArm 20.984363 -20.766917 61.332968
RightForeArm 6.085790 -0.000000 37.967204
RightHand -0.311868 0.000000 -1.041385
RightHandThumb1 -24.326973 -0.000000 -32.862282
LeftShoulder -20.295526 29.751545 1.742069
LeftArm 47.621362 -39.794541 -53.398344
LeftForeArm 38.415030 -0.000000 52.521575
LeftHand -16.316711 0.000000 -28.101566
LeftHandThumb1 -26.253704 0.000000 33.147579
Head 18.012840 32.607422 -2.489725
709
root 0.896939 36.921284 5.988458 -14.747634 -31.680993 -2.305618
RightUpLeg 21.792880 7.751147 9.580220
RightLeg -1.473724 -0.000000 0.000000
RightFoot -9.394916 -6.951145 8.393192
RightToeBase 9.877093 -0.000000 -0.000000
LeftUpLeg -55.444062 15.984291 -26.317545
LeftLeg 108.312051 -0.000000 -0.000000
LeftFoot 11.602142 17.545708 -32.615106
LeftToeBase -1.518610 -0.000000 0.000000
Spine 21.370841 -11.005079 1.759587
RightShoulder 1.219202 -28.711488 -10.699753
RightArm 21.015646 -20.840949 61.350525
RightForeArm 5.997557 -0.000000 38.013136
RightHand -0.380937 -0.000000 -0.898569
RightHandThumb1 -24.326973 -0.000000 -32.862282
LeftShoulder -20.349825 29.797120 1.733433
LeftArm 47.596675 -39.829322 -53.535526
LeftForeArm 38.510193 0.000000 52.635376
LeftHand -16.458248 0.000000 -28.124249
LeftHandThumb1 -26.253704 0.000000 33.147579
Head 18.031099 32.736426 -2.578468
710
root 0.886640 36.928677 5.999740 -14.814486 -31.987794 -2.230015
RightUpLeg 21.803688 7.856061 9.544096
RightLeg -1.377187 -0.000000 0.000000
RightFoot -9.391420 -6.816999 8.335842
RightToeBase 9.897878 -0.000000 -0.000000
LeftUpLeg -55.117917 16.218003 -25.877764
LeftLeg 107.876938 -0.000000 -0.000000
LeftFoot 11.633318 17.543256 -32.923523
LeftToeBase -1.319832 -0.000000 0.000000
Spine 21.385956 -10.873380 1.688557
RightShoulder 1.199358 -28.734214 -10.698872
RightArm 21.062965 -20.957689 61.331767
RightForeArm 6.063126 -0.000000 38.079057
RightHand -0.408085 -0.000000 -0.939242
RightHandThumb1 -24.326973 -0.000000 -32.862282
LeftShoulder -20.447060 29.883644 1.670547
LeftArm 47.568582 -39.874603 -53.635008
LeftForeArm 38.572028 0.000000 52.778328
LeftHand -16.587124 0.000000 -28.149541
LeftHandThumb1 -26.253704 0.000000 33.147579
Head 18.063778 32.887559 -2.684609
